<svg xmlns="http://www.w3.org/2000/svg" 
     width="160" height="160" viewBox="0 0 912 912">
  <!-- Background -->
  <rect width="912" height="912" fill="#272727" rx="48" ry="48"/>
  
  <!-- Icon -->
  <g transform="translate(200,712) scale(0.1,-0.1)" fill="#fff" stroke="none">
    <path d="M3300 4705 c-894 -228 -1626 -414 -1627 -414 -2 -1 -3 -613 -3 -1361
    l0 -1360 -62 46 c-73 53 -167 102 -255 132 -158 54 -379 55 -543 3 -296 -95
    -520 -330 -602 -631 -19 -72 -23 -108 -22 -230 1 -127 4 -156 28 -233 96 -318
    325 -542 641 -628 110 -30 316 -33 425 -5 273 70 499 255 611 501 15 35 39 96
    51 137 l23 73 3 1170 c1 643 6 1173 10 1177 5 5 2644 678 2659 678 2 0 3 -331
    3 -735 l0 -735 -51 40 c-74 59 -162 105 -265 139 -470 158 -972 -97 -1133
    -576 -55 -163 -55 -383 0 -545 106 -316 370 -549 689 -608 88 -17 259 -15 345
    3 331 70 593 318 687 652 l23 80 3 1823 c1 1002 -1 1822 -5 1821 -5 -1 -739
    -187 -1633 -414z"/>
  </g>
</svg>
